<?xml version="1.0" encoding="UTF-8"?>
<svg xmlns="http://www.w3.org/2000/svg" id="Layer_1" data-name="Layer 1" viewBox="0 0 55 55" width="512" height="512"><path d="M4.7,20.77a.74.74,0,0,1-.53-.22h0a.75.75,0,1,1,1.06-1.06.76.76,0,0,1-.52,1.29Z" fill="#556065"/><circle cx="27.5" cy="27.5" r="24" fill="#6eaddf"/><g opacity="0.74"><path d="M51.5,27.5A24,24,0,0,1,40.39,47.74,24,24,0,0,0,9.74,11.36,24,24,0,0,1,51.5,27.5Z" fill="#4d96d2"/></g><path d="M43.33,45.53A24,24,0,0,1,7.58,40.89a14.54,14.54,0,0,0,9-2.88,7.6,7.6,0,0,1,2-1.3,4.62,4.62,0,0,1,2.63,0,54.71,54.71,0,0,1,5.37,2.09,7.45,7.45,0,0,0,5.62.15c1.46-.69,2.59-2.14,4.2-2.32a5.81,5.81,0,0,1,3.17.88,1.78,1.78,0,0,1,.83.64,1.74,1.74,0,0,1,.09,1.17c-.18,1.14-.42,2.4.18,3.38A6.21,6.21,0,0,0,42,44,8.79,8.79,0,0,1,43.33,45.53Z" fill="#9dc271"/><path d="M27.5,52.25A24.73,24.73,0,0,1,7,41.31a.75.75,0,0,1,.62-1.17h0a13.55,13.55,0,0,0,8.52-2.73l.32-.25A6.66,6.66,0,0,1,18.37,36a5.3,5.3,0,0,1,3.06,0,21.65,21.65,0,0,1,3.46,1.3c.65.28,1.32.57,2,.81a6.53,6.53,0,0,0,5,.18,9.05,9.05,0,0,0,1.45-.93,6.28,6.28,0,0,1,3-1.46,6.54,6.54,0,0,1,3.59,1,2.37,2.37,0,0,1,1.15.95,2.44,2.44,0,0,1,.17,1.66l0,.15a4.24,4.24,0,0,0,.1,2.71,3.77,3.77,0,0,0,.82.83l.32.28a8.87,8.87,0,0,1,1.46,1.64.73.73,0,0,1-.11,1A24.68,24.68,0,0,1,27.5,52.25ZM9,41.6A23.24,23.24,0,0,0,42.3,45.42a9.2,9.2,0,0,0-.81-.84l-.3-.25a5.23,5.23,0,0,1-1.13-1.2,5.3,5.3,0,0,1-.3-3.73l0-.16a1.31,1.31,0,0,0,0-.68,1.45,1.45,0,0,0-.51-.34,5.2,5.2,0,0,0-2.75-.81,5.16,5.16,0,0,0-2.27,1.17,10.5,10.5,0,0,1-1.7,1.09,8,8,0,0,1-6.19-.13c-.71-.25-1.4-.56-2.07-.85a19.85,19.85,0,0,0-3.23-1.21,3.78,3.78,0,0,0-2.2-.06,5.15,5.15,0,0,0-1.5.93l-.34.26A15.18,15.18,0,0,1,9,41.6Z" fill="#556065"/><path d="M24.66,21.67a5.15,5.15,0,0,1-1.79,3.53,4.11,4.11,0,0,1-2,1.29,3.49,3.49,0,0,1-2.9-1c-.81-.7-1.43-1.58-2.21-2.3a7.78,7.78,0,0,0-4-2c-2.18-.38-5.34.2-7.07-1.17A23.92,23.92,0,0,1,16.61,6.12s0,0,0,.06c.13.43.14.89.3,1.31.74,1.92,4,1.72,4.82,3.59.52,1.12-.09,2.43-.83,3.42a7.53,7.53,0,0,0-1.83,3.15c-.18,1.22.9,2.68,2.06,2.27a8.36,8.36,0,0,0,.79-.4C23.19,19,24.62,20.31,24.66,21.67Z" fill="#9dc271"/><path d="M20.37,27.29a4.43,4.43,0,0,1-2.89-1.24,13.87,13.87,0,0,1-1.26-1.29,13.59,13.59,0,0,0-1-1,7,7,0,0,0-3.61-1.81,15.61,15.61,0,0,0-2.29-.16c-1.85,0-3.76-.09-5.11-1.16A.74.74,0,0,1,4,19.79,24.79,24.79,0,0,1,16.27,5.45a.78.78,0,0,1,.58,0,.71.71,0,0,1,.44.39.5.5,0,0,1,.05.13V6a5.15,5.15,0,0,1,.15.68,3.86,3.86,0,0,0,.13.58c.26.68,1.07,1,2,1.41a4.76,4.76,0,0,1,2.79,2.14c.55,1.17.23,2.66-.91,4.18l-.42.55a5.23,5.23,0,0,0-1.27,2.26,1.57,1.57,0,0,0,.52,1.31c.29.24.49.17.55.14a1.54,1.54,0,0,0,.34-.17c.13-.07.26-.15.4-.21a2.4,2.4,0,0,1,2.28.25,3.26,3.26,0,0,1,1.49,2.57,5.67,5.67,0,0,1-2,4.07A4.75,4.75,0,0,1,21,27.22,2.81,2.81,0,0,1,20.37,27.29ZM5.6,19.71a9.56,9.56,0,0,0,3.79.56,18.41,18.41,0,0,1,2.51.18,8.57,8.57,0,0,1,4.38,2.19c.38.36.72.74,1.06,1.12a11.24,11.24,0,0,0,1.12,1.16,2.91,2.91,0,0,0,2.26.84,3.54,3.54,0,0,0,1.62-1.09,4.35,4.35,0,0,0,1.57-3h0a1.75,1.75,0,0,0-.8-1.35.93.93,0,0,0-.87-.13,2,2,0,0,0-.25.13,2.66,2.66,0,0,1-.61.29,2,2,0,0,1-2-.4,3.05,3.05,0,0,1-1-2.69,6.42,6.42,0,0,1,1.57-3l.4-.53c.46-.61,1.16-1.77.75-2.65-.3-.66-1.13-1-2-1.39a4.5,4.5,0,0,1-2.82-2.25,3.23,3.23,0,0,1-.14-.51A23.26,23.26,0,0,0,5.6,19.71Z" fill="#556065"/><path d="M50.6,21a3.06,3.06,0,0,1-.48-.17c-.73-.32-1.34-.85-2.06-1.18a2.1,2.1,0,0,0-2.23.13,3.15,3.15,0,0,0-.71,1.66A10.57,10.57,0,0,1,44,24.32a1.94,1.94,0,0,1-2.34.85,3.74,3.74,0,0,1-1.35-.82c-.81-.8-1.14-2.09-2.15-2.61A4.35,4.35,0,0,0,37,21.42c-.3-.07-.59-.15-.89-.25a2,2,0,0,1-.53-3.49l0,0a5.83,5.83,0,0,0,2.25-2.09c.3-.66.36-1.53,1-1.86a2.34,2.34,0,0,1,1.34-.09,2.23,2.23,0,0,0,1.44-.29A1.07,1.07,0,0,0,42.1,12c-.16-.33-.52-.52-.7-.83-.44-.75.3-1.63,1-2.18l.22-.18A24,24,0,0,1,50.6,21Z" fill="#9dc271"/><path d="M42.31,26a2.65,2.65,0,0,1-.91-.16,4.5,4.5,0,0,1-1.62-1,6.5,6.5,0,0,1-.93-1.26,3,3,0,0,0-1-1.21,3.1,3.1,0,0,0-.76-.22l-.17,0a8.36,8.36,0,0,1-1-.27,2.74,2.74,0,0,1-.72-4.82h0l.42-.29a4.23,4.23,0,0,0,1.58-1.49c.07-.18.13-.36.19-.54A2.6,2.6,0,0,1,38.54,13a2.64,2.64,0,0,1,1.59-.18h.17a1.54,1.54,0,0,0,1-.16.42.42,0,0,0,.19-.33,1.6,1.6,0,0,0-.22-.26,2.34,2.34,0,0,1-.47-.54c-.55-.95-.13-2.09,1.15-3.14l.2-.17a.74.74,0,0,1,1,0,24.55,24.55,0,0,1,8.27,12.55.74.74,0,0,1-.19.72.77.77,0,0,1-.72.21,4.76,4.76,0,0,1-.6-.21,9.36,9.36,0,0,1-1.17-.66,7.8,7.8,0,0,0-.9-.53,1.44,1.44,0,0,0-1.41,0,2.37,2.37,0,0,0-.45,1.13l0,.15a11.13,11.13,0,0,1-1.2,3.07A2.68,2.68,0,0,1,42.31,26Zm-6.25-7.74h0a1.18,1.18,0,0,0-.49,1.16,1.23,1.23,0,0,0,.83,1c.28.09.54.16.82.23l.15,0a4.22,4.22,0,0,1,1.14.35,4.41,4.41,0,0,1,1.63,1.76,5.6,5.6,0,0,0,.71,1,3,3,0,0,0,1.09.65A1.2,1.2,0,0,0,43.35,24a9.93,9.93,0,0,0,1-2.67l0-.15a3.51,3.51,0,0,1,.89-1.89,2.85,2.85,0,0,1,3-.27,9.86,9.86,0,0,1,1,.55,23.05,23.05,0,0,0-6.74-9.7c-.43.42-.66.82-.55,1a1.24,1.24,0,0,0,.2.22,2.47,2.47,0,0,1,.53.66A1.81,1.81,0,0,1,42.09,14a3,3,0,0,1-1.92.42l-.19,0a1.55,1.55,0,0,0-.73,0c-.18.09-.3.46-.41.81a7.23,7.23,0,0,1-.26.7A5.29,5.29,0,0,1,36.48,18l-.4.27S36.07,18.28,36.06,18.29Z" fill="#556065"/><path d="M27.5,52.25A24.75,24.75,0,1,1,52.25,27.5,24.77,24.77,0,0,1,27.5,52.25Zm0-48A23.25,23.25,0,1,0,50.75,27.5,23.28,23.28,0,0,0,27.5,4.25Z" fill="#556065"/></svg>
